<svg xmlns="http://www.w3.org/2000/svg" xmlns:xlink="http://www.w3.org/1999/xlink" version="1.1" id="Layer_1" x="0px" y="0px" width="100px" height="100px" viewBox="0 0 100 100" enable-background="new 0 0 100 100" xml:space="preserve" fill="#FFFFFF">
<path fill-rule="evenodd" clip-rule="evenodd" d="M49.001,2.091c-1.279,0.695-2.684,1.23-3.814,2.116  c-3.321,2.601-4.311,6.989-2.612,10.836c1.602,3.628,5.633,5.928,9.476,5.407c4.136-0.561,7.391-3.674,7.975-7.633  c0.639-4.324-1.467-8.232-5.367-9.96c-0.584-0.259-1.171-0.511-1.758-0.767C51.603,2.091,50.301,2.091,49.001,2.091z"/>
<path fill-rule="evenodd" clip-rule="evenodd" d="M50.062,57.2c1.904-0.603,1.826,0.464,1.826,1.546  c-0.014,11.521-0.023,23.041-0.008,34.562c0.006,4.151,3.683,6.688,7.235,4.99c2.163-1.033,2.953-2.902,2.943-5.226  c-0.024-5.789-0.009-11.579-0.01-17.369c-0.001-8.685-0.019-17.369,0.02-26.054c0.004-1.06-0.188-1.703-1.263-2.188  c-3.217-1.456-5.436-3.882-6.558-7.278c-0.158-0.48-0.49-0.93-0.829-1.32c-1.652-1.903-1.766-3.583-0.332-5.591  c0.171-0.238,0.433-0.453,0.5-0.718c0.83-3.236,1.634-6.479,2.467-9.819c-4.555,0-9.151-0.063-13.745,0.047  c-1.072,0.026-2.237,0.461-3.173,1.019c-5.083,3.033-7.982,7.519-8.081,13.481c-0.086,5.138,3.855,8.891,9.622,9.439  c1.697,0.162,3.426,0.121,5.132,0.031c1.883-0.1,3.225-1.622,3.159-3.383c-0.068-1.795-1.477-3.073-3.392-3.13  c-1.704-0.05-3.437,0.021-5.104-0.268c-2.506-0.433-3.495-2.009-2.611-4.388c0.717-1.931,1.917-3.683,2.922-5.55  c0.796,0.962,1.168,1.679,1.755,2.076c2.581,1.748,5.224,3.404,7.924,5.144c-0.31,0.513-0.521,0.921-0.788,1.292  c-0.78,1.084-1.155,1.977-0.35,3.442c1.351,2.453-0.59,5.374-3.542,5.476c-1.517,0.052-2.225,0.759-3.082,1.856  c-2.299,2.941-2.97,6.138-2.902,9.855c0.205,11.104,0.058,22.212,0.1,33.318c0.004,1.153,0.139,2.397,0.588,3.437  c0.954,2.21,3.327,3.269,5.56,2.739c2.43-0.575,3.981-2.42,3.999-4.957c0.04-5.73,0.016-11.461,0.016-17.191c0-5.79,0-11.58,0-17.37  C50.062,58.513,50.062,57.874,50.062,57.2z"/>
<path fill-rule="evenodd" clip-rule="evenodd" d="M56.452,31.486c1.998,1.154,3.661,2.117,5.326,3.08  c0.104-0.072,0.208-0.144,0.312-0.214c-0.407-0.956-0.812-1.911-1.22-2.867c0.161-0.074,0.321-0.148,0.482-0.222  c0.802,1.488,1.603,2.976,2.406,4.463c-0.126,0.13-0.248,0.261-0.373,0.392c-0.762-0.349-1.551-0.647-2.276-1.057  c-1.182-0.665-2.289-1.464-3.487-2.095c-1.497-0.79-3.125-0.366-4.103,0.947c-0.942,1.267-0.973,3.267,0.251,4.198  c3.155,2.403,6.483,4.587,10.611,4.849c3.442,0.218,5.754-1.894,6.02-5.305c0.399-5.131-4.248-12.481-8.988-14.424  c-1.499-0.614-2.271-0.322-2.728,1.207C57.98,26.8,57.198,29.141,56.452,31.486z"/>
<path fill-rule="evenodd" clip-rule="evenodd" d="M73.571,49.789c-3.626-0.371-7.116-0.729-10.68-1.093c0,3.454,0,7.023,0,10.593  C69.623,59.42,74.075,54.66,73.571,49.789z"/>
<path fill-rule="evenodd" clip-rule="evenodd" d="M27.696,45.779c3.966,2.544,7.727,4.959,11.658,7.482  c1.163-1.819,2.283-3.574,3.57-5.586c-5.212-0.296-9.547-1.708-12.046-6.755C29.765,42.619,28.789,44.11,27.696,45.779z"/>
<path fill-rule="evenodd" clip-rule="evenodd" d="M48.13,39.566c0.289-0.44,0.767-1.169,1.362-2.074  c-2.963-1.905-5.855-3.763-8.758-5.629c-0.267,0.253-0.476,0.386-0.594,0.575c-1.067,1.697-2.482,3.53-1.494,5.517  c0.966,1.943,3.248,1.507,5.09,1.599C45.061,39.619,46.392,39.566,48.13,39.566z"/>
<path fill-rule="evenodd" clip-rule="evenodd" d="M63.026,43.657c-0.461,1.141-0.28,1.919,0.987,2.112  c2.937,0.445,5.876,0.857,9.253,1.346c-0.781-2.896-1.41-5.23-2.182-8.083C69.452,42.979,66.661,44.173,63.026,43.657z"/>
<path fill-rule="evenodd" clip-rule="evenodd" d="M58.507,42.513c1.033,0.803,2.063,1.605,3.186,2.478  C62.11,43.243,61.824,43.021,58.507,42.513z"/>
</svg>